<svg width="75" height="95" viewBox="0 0 75 95" fill="none" xmlns="http://www.w3.org/2000/svg">
<path d="M8.97341 45.821C13.9293 45.821 17.9468 41.8035 17.9468 36.8476C17.9468 31.8917 13.9293 27.8741 8.97341 27.8741C4.01753 27.8741 0 31.8917 0 36.8476C0 41.8035 4.01753 45.821 8.97341 45.821Z" fill="#999999"/>
<path d="M57.6874 27.5371C65.2915 27.5371 71.4559 21.3727 71.4559 13.7685C71.4559 6.16438 65.2915 0 57.6874 0C50.0832 0 43.9188 6.16438 43.9188 13.7685C43.9188 21.3727 50.0832 27.5371 57.6874 27.5371Z" fill="#97D459"/>
<path d="M73.1639 66.5073C69.151 55.4817 56.9608 49.799 45.9352 53.8119C36.5581 57.2242 31.0685 66.5537 32.1002 76.0511C32.2832 77.7172 32.6392 79.3907 33.2385 81.0393C35.4875 87.2171 40.3051 91.7163 46.0455 93.7735C48.994 94.8303 52.1832 95.2177 55.395 94.883C57.0924 94.7037 58.7923 94.3465 60.4671 93.7372C60.7317 93.6407 60.9774 93.5178 61.2356 93.4113C68.6583 90.3775 73.4835 83.5829 74.3021 76.0511C74.6431 72.9208 74.3134 69.6689 73.1639 66.5073Z" fill="#FCC100"/>
</svg>
