<svg width="212" height="212" viewBox="0 0 212 212" fill="none" xmlns="http://www.w3.org/2000/svg">
<path d="M121.857 107.663C119.581 109.939 116.893 111.61 113.865 112.627C113.595 112.719 113.359 112.863 113.162 113.044C112.898 112.997 112.622 113.005 112.347 113.075C109.282 113.852 106.033 113.91 102.934 113.254C102.658 113.193 102.379 113.195 102.119 113.254C101.916 113.08 101.673 112.947 101.401 112.865C98.3349 111.963 95.5841 110.397 93.2254 108.211C92.4343 107.475 91.1972 107.524 90.4647 108.315C89.7306 109.106 89.7776 110.343 90.5687 111.076C93.3729 113.675 96.6464 115.539 100.297 116.615C100.619 116.709 100.951 116.719 101.257 116.651C101.496 116.856 101.789 117.005 102.12 117.076C103.806 117.435 105.532 117.616 107.256 117.616C109.296 117.616 111.332 117.364 113.306 116.864C113.633 116.78 113.919 116.62 114.152 116.405C114.457 116.458 114.789 116.436 115.112 116.332C118.715 115.119 121.914 113.131 124.62 110.426C125.383 109.663 125.383 108.426 124.62 107.663C123.856 106.902 122.621 106.902 121.857 107.663Z" fill="#0BB0EF"/>
<path d="M135.553 118.597C134.788 117.835 133.555 117.835 132.79 118.597C131.124 120.261 129.302 121.746 127.364 123.051C126.554 123.595 125.729 124.117 124.878 124.594C124.618 124.738 124.403 124.935 124.241 125.164C123.961 125.168 123.677 125.235 123.411 125.369C120.446 126.853 117.281 127.92 114.007 128.541C113.712 128.597 113.447 128.716 113.221 128.88C112.951 128.795 112.657 128.766 112.368 128.814C110.688 129.05 108.981 129.173 107.292 129.173C107.28 129.173 107.271 129.173 107.259 129.173C105.651 129.173 104.03 129.064 102.441 128.85C102.145 128.814 101.855 128.838 101.589 128.925C101.361 128.762 101.094 128.646 100.799 128.593C97.5247 128 94.3522 126.96 91.372 125.501C91.1037 125.369 90.8203 125.306 90.5403 125.3C90.3759 125.074 90.1593 124.88 89.8973 124.737C88.9581 124.221 88.0515 123.648 87.1611 123.049C85.3036 121.801 83.5478 120.392 81.9383 118.805C81.1687 118.05 79.9333 118.058 79.1748 118.828C78.418 119.597 78.4278 120.835 79.1974 121.592C79.7103 122.096 80.2464 122.574 80.7837 123.049C83.0094 125.018 85.4285 126.74 88.0195 128.16C88.3094 128.32 88.6219 128.398 88.9326 128.403C89.1132 128.653 89.356 128.863 89.6534 129.009C92.9577 130.627 96.4746 131.78 100.106 132.436C100.435 132.497 100.753 132.471 101.045 132.376C101.297 132.555 101.593 132.678 101.921 132.723C103.694 132.959 105.546 133.076 107.294 133.078C109.166 133.078 111.058 132.944 112.919 132.678C113.246 132.633 113.544 132.508 113.793 132.326C114.089 132.416 114.408 132.442 114.735 132.378C118.365 131.69 121.872 130.507 125.16 128.863C125.456 128.716 125.697 128.503 125.875 128.25C126.184 128.244 126.497 128.165 126.785 128.001C129.271 126.61 131.599 124.945 133.743 123.049C134.36 122.503 134.967 121.944 135.552 121.359C136.316 120.597 136.316 119.359 135.553 118.597Z" fill="#FCC100"/>
<path d="M77.1761 139.744C77.4462 139.918 77.7424 140.019 78.0421 140.048C78.2001 140.303 78.4197 140.527 78.6967 140.692C81.7681 142.538 85.0381 144.089 88.415 145.305C88.7176 145.413 89.0255 145.441 89.3298 145.405C89.5413 145.618 89.8067 145.786 90.1128 145.885C93.5228 146.988 97.0577 147.765 100.618 148.191C100.945 148.23 101.247 148.187 101.531 148.084C101.786 148.245 102.082 148.349 102.403 148.377C104.016 148.516 105.65 148.586 107.258 148.586C109.214 148.586 111.198 148.482 113.153 148.276C113.476 148.241 113.77 148.13 114.022 147.965C114.304 148.064 114.616 148.1 114.935 148.056C118.485 147.564 122.004 146.723 125.394 145.554C125.699 145.448 125.961 145.276 126.169 145.057C126.472 145.089 126.783 145.056 127.086 144.942C130.436 143.665 133.674 142.05 136.714 140.144C136.988 139.973 137.204 139.744 137.357 139.483C137.657 139.448 137.953 139.343 138.219 139.164C141.178 137.173 143.971 134.872 146.519 132.325C147.282 131.562 147.282 130.325 146.519 129.561C145.754 128.8 144.521 128.8 143.755 129.561C141.385 131.931 138.789 134.072 136.039 135.922C135.79 136.089 135.591 136.304 135.448 136.548C135.168 136.581 134.892 136.674 134.637 136.833C131.813 138.604 128.804 140.104 125.692 141.29C125.412 141.398 125.171 141.561 124.978 141.765C124.69 141.73 124.406 141.76 124.122 141.859C120.969 142.944 117.698 143.728 114.398 144.184C114.1 144.225 113.828 144.333 113.593 144.487C113.329 144.394 113.042 144.36 112.743 144.388C109.426 144.742 106.066 144.772 102.741 144.482C102.432 144.454 102.153 144.5 101.891 144.596C101.654 144.446 101.38 144.345 101.082 144.31C97.7715 143.914 94.4858 143.194 91.3168 142.166C91.0287 142.073 90.7389 142.054 90.4607 142.086C90.2638 141.888 90.0198 141.728 89.7364 141.626C86.6 140.498 83.5611 139.055 80.7081 137.342C80.4525 137.189 80.1761 137.1 79.8961 137.072C79.7498 136.835 79.5476 136.623 79.2956 136.462C76.5041 134.658 73.8689 132.569 71.4637 130.249C70.6889 129.501 69.4506 129.52 68.7019 130.3C67.9533 131.076 67.9759 132.313 68.7525 133.062C71.3377 135.557 74.1733 137.805 77.1761 139.744Z" fill="#97D459"/>
<path d="M146.937 109.044C149.233 109.044 151.094 107.183 151.094 104.887C151.094 102.59 149.233 100.729 146.937 100.729C144.641 100.729 142.779 102.59 142.779 104.887C142.779 107.183 144.641 109.044 146.937 109.044Z" fill="#999999"/>
<path d="M185.555 58.1263L184.694 56.1666L184.674 56.1765C183.262 53.0726 181.648 50.0273 179.873 47.1192L179.893 47.1064L178.755 45.2948L178.735 45.3064C176.888 42.4436 174.847 39.6637 172.668 37.0396L172.685 37.0233L171.299 35.3976L171.281 35.4121C169.037 32.8437 166.613 30.3874 164.078 28.106L164.092 28.088L162.483 26.68L162.469 26.6963C159.871 24.4747 157.115 22.393 154.279 20.5047L154.288 20.4885L152.499 19.3263L152.487 19.3472C149.599 17.5275 146.569 15.8675 143.472 14.4055L143.482 14.3846L141.545 13.5006L141.535 13.5215C138.402 12.1398 135.16 10.9404 131.892 9.95238L131.899 9.92972L129.851 9.33903L129.844 9.35994C126.555 8.45676 123.177 7.74525 119.797 7.244L119.799 7.2231L117.684 6.93675L117.68 6.9594C114.298 6.5476 110.851 6.33444 107.431 6.32805L105.3 6.32979V6.3507C101.885 6.4355 98.443 6.74159 95.0626 7.26201L95.0579 7.23762L92.9536 7.59075L92.9571 7.61341C89.6092 8.22037 86.2562 9.0521 82.9879 10.086L82.9797 10.0662L80.9469 10.7371L80.9533 10.7597C77.7518 11.8633 74.57 13.1864 71.4853 14.6954L71.4737 14.6756L69.5662 15.6392L69.5761 15.659C66.5651 17.2278 63.6093 18.9987 60.7825 20.9258L60.7697 20.9078L59.0168 22.1351L59.0295 22.1531C56.2724 24.1308 53.5919 26.3002 51.0607 28.6014L51.0479 28.5869L49.482 30.0418L49.4965 30.0581C47.0356 32.4017 44.6803 34.9167 42.493 37.5321L42.475 37.5193L41.1211 39.1776L41.1373 39.1904C39.0115 41.8563 37.021 44.6687 35.2158 47.5513L35.2013 47.5414L34.085 49.3658L34.1059 49.3786C32.3576 52.3228 30.7743 55.3843 29.3972 58.4835L29.3763 58.4737L28.5317 60.4415L28.5498 60.4496C27.9788 61.8238 27.4613 63.219 26.9641 64.6188H31.146C31.5009 63.6714 31.8378 62.7177 32.2281 61.7843L32.8955 60.233C34.2528 57.1651 35.8205 54.1326 37.5571 51.2209L38.4359 49.7741C40.2179 46.913 42.1927 44.1245 44.3051 41.4846L45.3744 40.176C47.5391 37.5786 49.8764 35.0851 52.3193 32.7653L53.5594 31.6095C56.0627 29.3245 58.7188 27.1761 61.4516 25.2228L62.8368 24.2528C65.63 22.3401 68.5579 20.5872 71.5381 19.0428L73.0454 18.2814C76.0889 16.784 79.2352 15.4754 82.3978 14.3945L83.9962 13.8654C87.2174 12.8385 90.5246 12.0178 93.8254 11.4271L95.4872 11.1489C98.8141 10.6296 102.204 10.327 105.565 10.2521L107.255 10.2341C107.281 10.2341 107.307 10.2341 107.334 10.2323C110.687 10.2358 114.068 10.4455 117.38 10.8573L119.056 11.0838C122.394 11.5705 125.731 12.2733 128.974 13.1719L130.6 13.6423C133.823 14.6094 137.024 15.7943 140.112 17.1627L141.655 17.8672C144.713 19.303 147.707 20.9415 150.55 22.7421L151.972 23.6615C154.779 25.5184 157.501 27.5774 160.065 29.7782L161.334 30.8916C163.846 33.1411 166.243 35.5707 168.458 38.1135L169.551 39.3995C171.712 41.9888 173.73 44.7378 175.551 47.5734L176.447 49.001C178.206 51.8738 179.803 54.8848 181.192 57.9562L181.871 59.4994C182.588 61.1774 183.239 62.8902 183.842 64.6188H187.945C187.22 62.4291 186.438 60.2545 185.538 58.135L185.555 58.1263Z" fill="#0BB0EF"/>
<path d="M31.7367 130.439L32.7473 132.326L32.7671 132.315C34.409 135.294 36.252 138.207 38.2489 140.978L38.2326 140.99L39.5023 142.71L39.522 142.697C41.581 145.409 43.8288 148.027 46.2067 150.48L46.1887 150.496L47.6977 152.011L47.7122 151.996C50.147 154.387 52.7514 156.652 55.4563 158.733L55.4435 158.753L57.1511 160.033L57.1639 160.015C59.9274 162.033 62.8345 163.9 65.8112 165.565L65.7996 165.585L67.6727 166.602L67.6843 166.582C70.715 168.179 73.866 169.601 77.0559 170.814L77.0477 170.837L79.0464 171.565L79.0528 171.546C82.2769 172.678 85.6021 173.624 88.9407 174.359L88.936 174.378L91.0305 174.812L91.0351 174.79C94.3748 175.436 97.7947 175.886 101.209 176.125L103.342 176.269L103.343 176.246C104.64 176.307 105.946 176.336 107.257 176.336C109.369 176.336 111.5 176.258 113.602 176.103L113.605 176.126L115.733 175.942L115.731 175.921C119.13 175.586 122.538 175.038 125.865 174.295L125.871 174.316L127.949 173.824L127.944 173.802C131.26 172.972 134.551 171.931 137.736 170.709L137.744 170.731L139.725 169.942L139.716 169.919C142.862 168.619 145.963 167.109 148.94 165.433L148.952 165.452L150.801 164.378L150.791 164.359C153.717 162.609 156.565 160.666 159.261 158.578L159.275 158.597L160.949 157.266L160.935 157.249C163.583 155.088 166.12 152.753 168.484 150.3L168.499 150.314L169.963 148.758L169.947 148.742C172.254 146.227 174.429 143.544 176.417 140.768L176.436 140.78L177.656 139.028L177.638 139.016C179.559 136.188 181.323 133.216 182.885 130.18L182.906 130.191L183.857 128.286L183.836 128.274C184.661 126.564 185.418 124.816 186.13 123.048H181.889C181.363 124.286 180.829 125.52 180.244 126.726L179.489 128.243C177.951 131.241 176.21 134.177 174.308 136.965L173.34 138.353C171.384 141.1 169.234 143.749 166.95 146.231L165.793 147.463C163.462 149.892 160.953 152.202 158.33 154.331L157.01 155.382C154.35 157.452 151.532 159.373 148.635 161.095L147.176 161.941C144.24 163.605 141.176 165.096 138.067 166.374L136.494 167C133.353 168.214 130.101 169.241 126.826 170.054L125.185 170.443C121.9 171.184 118.532 171.725 115.175 172.049L113.489 172.194C110.124 172.45 106.69 172.497 103.347 172.336L102.462 172.293L101.658 172.238C98.2838 172.008 94.9016 171.566 91.6055 170.919L89.9519 170.579C86.6557 169.863 83.3729 168.929 80.1929 167.804L78.5997 167.22C75.4516 166.031 72.3414 164.626 69.3565 163.045L67.8673 162.235C64.926 160.598 62.0533 158.756 59.3304 156.757L57.9765 155.741C55.2989 153.688 52.7241 151.449 50.3253 149.084L49.1358 147.887C46.7805 145.466 44.5572 142.877 42.5295 140.193L41.5235 138.835C39.5441 136.099 37.7197 133.217 36.105 130.271L35.3093 128.785C34.3364 126.92 33.4594 124.995 32.6306 123.049H28.4109C29.4215 125.557 30.5193 128.038 31.7582 130.426L31.7367 130.439Z" fill="#0BB0EF"/>
<path d="M177.898 55.4569L176.904 53.5657L176.883 53.5773C175.256 50.5791 173.411 47.6576 171.398 44.8842L171.419 44.8679L170.141 43.1591L170.121 43.1719C168.039 40.4589 165.761 37.858 163.345 35.4342L163.361 35.4179L161.838 33.927L161.82 33.945C159.339 31.5833 156.681 29.3652 153.921 27.3486L153.934 27.3288L152.198 26.0952L152.183 26.1149C149.364 24.1715 146.393 22.3942 143.348 20.8318L143.358 20.8108L141.451 19.8635L141.441 19.8844C138.353 18.4033 135.139 17.1145 131.877 16.0481L131.883 16.0237L129.849 15.3906L129.842 15.4133C126.563 14.4398 123.19 13.6731 119.806 13.1347L119.81 13.112L117.701 12.8042L117.697 12.8286C114.258 12.3761 110.747 12.1467 107.277 12.1467H106.979V12.1241L104.834 12.1682L104.836 12.1827C101.405 12.2867 97.9656 12.6125 94.6061 13.1527L94.6015 13.1301L92.5 13.4948L92.5047 13.5192C89.1406 14.1523 85.791 15.0131 82.5389 16.0812L82.5291 16.0586L80.5142 16.7521L80.5223 16.773C77.3028 17.9271 74.131 19.3054 71.0857 20.873L71.0729 20.8503L69.1882 21.8546L69.1998 21.8743C66.2051 23.5181 63.2899 25.3755 60.531 27.395L60.5165 27.3753L58.8106 28.6595L58.8234 28.6792C56.1214 30.7708 53.5286 33.0592 51.1153 35.4876L51.0991 35.4714L49.6145 37.0013L49.6325 37.0193C47.2825 39.5145 45.0753 42.1804 43.0698 44.9492L43.05 44.9364L41.8245 46.6766L41.8454 46.6911C39.9101 49.5215 38.1461 52.4999 36.5965 55.5515L36.5739 55.5399L35.6364 57.4526L35.6573 57.4624C34.5555 59.7886 33.6024 62.1938 32.7323 64.6217H36.8829C37.6077 62.7131 38.3849 60.8231 39.2607 58.9859L40.0059 57.4688C41.5213 54.4677 43.2562 51.5363 45.1636 48.7594L46.1371 47.3759C48.1014 44.6478 50.2725 42.0242 52.5923 39.5766L53.7656 38.3639C56.1354 35.9697 58.6875 33.7155 61.35 31.6647L62.6975 30.6505C65.4093 28.6566 68.2803 26.8287 71.2292 25.2175L72.7184 24.4265C75.7085 22.8786 78.8316 21.5229 81.9988 20.395L83.5955 19.8478C86.7888 18.7902 90.085 17.9433 93.3922 17.3282L95.0557 17.0384C98.3629 16.4994 101.753 16.1788 105.132 16.0847L107.255 16.0539C110.632 16.0539 114.031 16.2804 117.354 16.7259L119.024 16.9687C122.351 17.4914 125.671 18.2448 128.89 19.2084L130.501 19.7113C133.708 20.7516 136.868 22.0195 139.897 23.4809L141.412 24.233C144.41 25.7629 147.334 27.5112 150.1 29.4302L151.477 30.4066C154.198 32.3826 156.812 34.5653 159.248 36.8944L160.457 38.0746C162.839 40.4542 165.081 43.0163 167.124 45.6904L168.131 47.0413C170.119 49.766 171.935 52.6451 173.528 55.5963L174.312 57.0872C175.558 59.5232 176.64 62.0573 177.615 64.6222H181.814C180.693 61.5021 179.378 58.4237 177.875 55.4708L177.898 55.4569Z" fill="#0BB0EF"/>
<path d="M36.7236 127.41L37.7232 129.298L37.7441 129.287C39.3797 132.278 41.232 135.197 43.2521 137.965L43.2341 137.979L44.5148 139.687L44.5345 139.673C46.6197 142.376 48.9046 144.97 51.3313 147.392L51.3133 147.41L52.8432 148.895L52.8595 148.879C55.3494 151.233 58.0125 153.442 60.7778 155.45L60.765 155.47L62.5052 156.699L62.5197 156.679C65.3436 158.617 68.3221 160.386 71.3737 161.941L71.3639 161.962L73.2713 162.901L73.2829 162.88C76.3816 164.355 79.6011 165.634 82.8548 166.688L82.8484 166.712L84.886 167.34L84.8941 167.317C88.1752 168.282 91.5509 169.038 94.9348 169.567L94.9313 169.593L97.0426 169.892L97.0461 169.869C100.415 170.302 103.849 170.52 107.257 170.52L107.308 170.544L109.436 170.52V170.49C112.872 170.398 116.317 170.083 119.683 169.552L119.687 169.576L121.789 169.215L121.786 169.192C125.151 168.567 128.506 167.716 131.758 166.658L131.768 166.683L133.787 165.994L133.778 165.972C137.001 164.825 140.178 163.457 143.228 161.899L143.238 161.92L145.127 160.924L145.115 160.901C148.113 159.266 151.035 157.418 153.8 155.407L153.816 155.426L155.523 154.147L155.511 154.127C158.221 152.043 160.819 149.761 163.237 147.343L163.255 147.359L164.744 145.832L164.726 145.814C167.082 143.333 169.295 140.674 171.309 137.906L171.33 137.92L172.559 136.182L172.541 136.167C173.338 135.01 174.085 133.813 174.822 132.61C173.921 133.237 172.937 133.77 171.858 134.163C170.807 134.545 169.74 134.766 168.675 134.871L168.25 135.471C166.274 138.197 164.094 140.815 161.773 143.25L160.596 144.459C158.221 146.843 155.662 149.09 152.991 151.136L151.642 152.145C148.923 154.13 146.048 155.95 143.094 157.553L141.605 158.341C138.609 159.878 135.482 161.226 132.31 162.346L130.713 162.888C127.518 163.937 124.218 164.775 120.907 165.38L119.243 165.664C115.936 166.193 112.546 166.504 109.165 166.59L107.26 166.613C103.961 166.613 100.636 166.397 97.3771 165.972L96.6284 165.875L95.709 165.733C92.3803 165.22 89.0586 164.477 85.8345 163.521L84.2233 163.023C81.0235 161.996 77.8574 160.738 74.8157 159.282L73.2957 158.535C70.2946 157.015 67.3661 155.275 64.5961 153.364L63.2126 152.389C60.4897 150.421 57.869 148.246 55.4244 145.924L54.2133 144.748C51.8209 142.371 49.5697 139.816 47.5258 137.154L46.5134 135.804C44.5177 133.084 42.6951 130.213 41.0937 127.264L40.3044 125.776C39.8456 124.886 39.4396 123.964 39.0156 123.053H34.6948C35.3384 124.524 36.0174 125.98 36.7463 127.403L36.7236 127.41Z" fill="#0BB0EF"/>
<path d="M175.429 64.0635L174.607 62.0939L174.583 62.1038C173.216 58.9627 171.614 55.8896 169.821 52.9681L169.842 52.9553L168.699 51.1553L168.678 51.1681C166.805 48.307 164.707 45.548 162.441 42.9634L162.459 42.9454L161.032 41.365L161.012 41.3812C158.67 38.8651 156.137 36.4965 153.476 34.3353L153.492 34.3144L151.824 33.0011L151.808 33.0191C149.079 30.9311 146.18 29.0202 143.188 27.337L143.2 27.3143L141.335 26.2985L141.323 26.3228C138.277 24.7227 135.093 23.3299 131.854 22.1775L131.863 22.1514L129.853 21.4724L129.844 21.4951C126.574 20.4385 123.205 19.6085 119.821 19.0242L119.825 18.9964L117.723 18.6659L117.719 18.692C114.276 18.2006 110.758 17.9532 107.258 17.9532H104.992V17.9875C101.545 18.0932 98.0927 18.4399 94.7205 19.0196L94.7158 18.9952L92.6243 19.3861L92.6289 19.4122C89.2631 20.0924 85.9181 21.0205 82.6858 22.1694L82.676 22.1432L80.6803 22.8855L80.6884 22.9099C77.4968 24.15 74.3638 25.6311 71.3685 27.3126L71.3558 27.2917L69.5134 28.3627L69.5262 28.3836C66.5919 30.1447 63.7528 32.1334 61.0857 34.2969L61.0677 34.2772L59.4321 35.6445L59.4483 35.6642C56.8439 37.9056 54.3783 40.3433 52.1178 42.9169L52.0998 42.9007L50.7163 44.5183L50.736 44.5363C48.5469 47.1761 46.5239 49.9954 44.7222 52.9251L44.7024 52.9123L43.6116 54.7367L43.636 54.7512C41.9203 57.7261 40.402 60.8515 39.1213 64.0449L39.0969 64.0368L38.8733 64.6205H43.1429C44.2964 61.857 45.6056 59.1439 47.1018 56.5633L47.9661 55.1113C49.7225 52.242 51.7013 49.4814 53.8498 46.9048L54.9452 45.6207C57.1523 43.0964 59.5674 40.7069 62.1259 38.5178L63.4148 37.4404C66.0238 35.3146 68.8054 33.3665 71.6816 31.6496L73.1383 30.8033C76.0645 29.1497 79.133 27.6994 82.2595 26.4936L83.8382 25.9076C86.9973 24.7761 90.2702 23.87 93.5646 23.2108L95.22 22.9018C98.5161 22.3256 101.897 21.987 105.267 21.8912L107.258 21.8621C110.628 21.8621 114.017 22.1061 117.331 22.5864L118.992 22.8484C122.303 23.4129 125.6 24.2255 128.795 25.2652L130.396 25.8088C133.563 26.9269 136.677 28.2895 139.647 29.8583L141.132 30.6657C144.06 32.3047 146.897 34.175 149.563 36.2241L150.89 37.2708C153.498 39.3786 155.981 41.6995 158.266 44.1686L159.392 45.4168C161.618 47.9428 163.674 50.6465 165.502 53.4525L166.404 54.8731C168.169 57.7296 169.737 60.7406 171.068 63.8219L171.403 64.6217H175.603C175.533 64.4416 175.479 64.2546 175.407 64.0757L175.429 64.0635Z" fill="#0BB0EF"/>
<path d="M41.7205 124.425L42.7085 126.311L42.7329 126.299C44.3685 129.31 46.2323 132.233 48.2763 134.991L48.2536 135.009L49.5477 136.699L49.5674 136.684C51.688 139.379 54.0171 141.947 56.4943 144.321L56.4763 144.341L58.0358 145.791L58.0538 145.773C60.6059 148.082 63.3352 150.221 66.1737 152.142L66.1592 152.164L67.9348 153.328L67.9493 153.308C70.858 155.156 73.9126 156.807 77.0362 158.22L77.0264 158.244L78.9744 159.09L78.9843 159.067C82.1568 160.395 85.4477 161.502 88.7741 162.365L88.7694 162.39L90.8348 162.894L90.8412 162.868C94.1809 163.633 97.6107 164.165 101.036 164.453L103.159 164.625L103.16 164.599C104.529 164.674 105.906 164.711 107.259 164.711C109.342 164.709 111.43 164.622 113.469 164.451L113.473 164.477L115.591 164.267L115.589 164.244C119.002 163.858 122.414 163.226 125.732 162.365L125.739 162.391L127.791 161.826L127.785 161.802C131.076 160.846 134.328 159.646 137.461 158.228L137.471 158.251L139.403 157.344L139.39 157.319C142.467 155.818 145.465 154.086 148.309 152.161L148.324 152.182L150.072 150.965L150.056 150.942C152.841 148.94 155.508 146.723 157.987 144.35L158.007 144.371L159.52 142.875L159.504 142.86C161.916 140.411 164.174 137.777 166.216 135.024L166.237 135.039L166.346 134.887C164.898 134.764 163.488 134.402 162.175 133.819C160.442 136.056 158.595 138.223 156.604 140.232L155.403 141.413C152.981 143.743 150.369 145.914 147.638 147.867L146.258 148.83C143.477 150.719 140.539 152.419 137.522 153.881L136.005 154.594C132.943 155.989 129.756 157.166 126.536 158.092L124.91 158.54C121.665 159.39 118.325 160.008 114.984 160.378L113.306 160.542C110.018 160.828 106.615 160.881 103.206 160.688L102.412 160.643L101.527 160.572C98.1741 160.298 94.8181 159.776 91.5516 159.02L89.9125 158.621C86.6587 157.786 83.4398 156.702 80.3423 155.398L78.7926 154.723C75.7358 153.349 72.7474 151.733 69.9078 149.919L68.4953 148.994C65.7154 147.122 63.0413 145.025 60.549 142.76L59.3188 141.612C56.8858 139.293 54.6037 136.777 52.5331 134.135L51.5143 132.796C49.5059 130.1 47.6798 127.238 46.0866 124.287L45.4366 123.049H41.1118C41.3285 123.5 41.5161 123.967 41.7414 124.412L41.7205 124.425Z" fill="#0BB0EF"/>
<path d="M62.2363 199.272C62.2363 200.82 61.9435 201.936 61.3557 202.624C60.768 203.312 59.863 203.656 58.641 203.656C57.4172 203.656 56.5105 203.311 55.9181 202.624C55.3256 201.936 55.0294 200.82 55.0294 199.272V185.761H50.7894V198.784C50.7894 200.772 51.0729 202.386 51.6409 203.627C52.209 204.869 53.0715 205.781 54.2273 206.364C55.3832 206.946 56.8544 207.238 58.6416 207.238C60.4171 207.238 61.8738 206.946 63.0099 206.364C64.1478 205.781 64.9958 204.87 65.5539 203.627C66.1121 202.386 66.3921 200.771 66.3921 198.784V185.761H62.2368L62.2363 199.272Z" fill="#999999"/>
<path d="M89.6952 202.724L86.0987 185.761H81.4144L77.6739 202.566L74.1779 185.761H69.8938L74.5653 206.965H80.0959L83.7203 191.176L87.1158 206.965H92.6463L97.3173 185.761H93.3346L89.6952 202.724Z" fill="#999999"/>
<path d="M107.727 197.136H99.9769V200.546H107.727V197.136Z" fill="#999999"/>
<path d="M122.947 199.185L117.747 185.761H112.533V206.965H116.486V192.136L121.172 203.899H124.567L129.252 191.793V206.965H133.206V185.761H127.991L122.947 199.185Z" fill="#999999"/>
<path d="M148.566 199.185L143.366 185.761H138.151V206.965H142.104V192.136L146.79 203.899H150.186L154.871 191.793V206.965H158.825V185.761H153.61L148.566 199.185Z" fill="#999999"/>
<path d="M144.504 55.648H142.838C143.815 54.5839 144.822 53.4861 145.293 52.9739C146.358 51.814 146.371 51.2732 145.613 51.2732C144.577 51.2732 143.922 51.2732 143.19 51.2732C141.952 51.2732 141.334 51.7059 141.334 51.7059L135.487 55.6485H106.432C98.2083 55.6485 96.1115 55.4691 90.3655 59.1131C87.6763 60.819 84.5892 62.892 82.058 64.6199C79.1812 66.5837 77.024 68.1002 77.024 68.1002C76.5425 68.7821 76.4414 69.5046 76.7434 70.0564C77.0432 70.6117 77.7128 70.9346 78.5597 70.9346H127.131L127.87 70.064C130.133 67.6733 132.782 65.9058 135.634 64.6199C140.065 62.6207 144.994 61.8076 149.804 61.8076H150.617C150.618 58.2675 147.91 55.648 144.504 55.648Z" fill="#999999"/>
<path d="M155.106 92.7213C159.041 92.7213 161.164 87.9486 161.164 82.6045C161.164 80.851 161.214 81.286 161.214 78.4348C161.214 75.5835 160.56 74.0955 158.82 74.0955C157.08 74.0955 59.9693 74.0955 57.9545 74.0955C52.1027 74.0955 52.626 77.7146 54.8227 79.5993C57.0193 81.4847 57.8586 82.0614 63.8167 86.8654C71.7101 93.2301 79.3787 92.7213 88.6468 92.7213H153.71H155.106Z" fill="#999999"/>
<path d="M177.097 98.131C180.62 98.131 183.476 95.275 183.476 91.7518C183.476 88.2287 180.62 85.3727 177.097 85.3727C173.574 85.3727 170.718 88.2287 170.718 91.7518C170.718 95.275 173.574 98.131 177.097 98.131Z" fill="#97D459"/>
<path d="M176.677 118.628C174.818 113.52 169.17 110.887 164.062 112.746C159.717 114.327 157.174 118.65 157.652 123.05C157.737 123.822 157.902 124.597 158.179 125.361C159.221 128.223 161.453 130.308 164.113 131.261C165.479 131.751 166.957 131.93 168.445 131.775C169.231 131.692 170.019 131.527 170.795 131.244C170.917 131.2 171.031 131.143 171.151 131.093C174.59 129.688 176.825 126.54 177.205 123.05C177.363 121.6 177.21 120.093 176.677 118.628Z" fill="#FCC100"/>
</svg>
