<svg width="109" height="90" viewBox="0 0 109 90" fill="none" xmlns="http://www.w3.org/2000/svg">
<g clip-path="url(#clip0_4_23)">
<path d="M85.2686 77.9772C81.657 81.1564 78.7064 83.2146 75.1893 85.0081C73.4654 85.8872 70.6814 87.1219 70.1223 87.2553C69.9658 87.2926 69.79 87.3586 69.7317 87.4019C69.5506 87.5362 66.4832 88.4442 65.104 88.7717C63.0164 89.2674 61.0674 89.5954 58.755 89.84C57.3524 89.9885 53.0205 90.0534 51.4903 89.9489L51.4903 89.949C46.26 89.592 40.5843 88.1718 36.0064 86.0746C27.0779 81.9845 20.0012 75.5268 15.2388 67.1236C13.9477 64.8456 12.5367 61.7739 12.7043 61.6063C12.7556 61.555 13.4309 61.5264 14.2051 61.5428L15.6127 61.5725L16.2217 62.8683C21.4507 73.9939 31.1849 82.262 43.0278 85.637C45.3134 86.2884 47.961 86.7935 50.6098 87.0834C52.0491 87.241 56.7466 87.2424 58.2778 87.0857C69.4251 85.9453 79.2146 80.9295 86.442 72.6552C88.8958 69.846 90.8742 66.8252 92.6435 63.1863L93.4576 61.512L94.4716 61.5423C95.2039 61.5986 96.4333 61.5399 96.4044 61.6723C95.5887 63.6948 94.4358 66.0447 93.232 68.0731C92.181 69.8208 90.8497 71.7396 89.6427 73.2465L85.2686 77.9772Z" fill="#FDC314"/>
<path d="M51.5964 86.8609C43.7813 86.2323 36.9338 83.8446 30.7037 79.5757C25.9255 76.3017 21.9581 72.1515 18.8167 67.1411C17.8987 65.6769 16.0151 62.0309 16.0151 61.7182C16.0151 61.5336 16.1188 61.5195 17.4757 61.5195H18.9363L19.5014 62.6558C20.7557 65.1782 22.575 67.9179 24.5928 70.3231C25.6172 71.5442 28.6501 74.4826 30.0093 75.5708C36.9401 81.1197 45.7659 84.2214 54.6136 84.2176C56.1428 84.2164 59.0229 83.9671 60.769 83.6838C69.0192 82.3449 76.6486 78.3882 82.46 72.4346C85.549 69.2701 87.8163 66.1115 89.6292 62.4476L90.0884 61.5195H91.4497C91.784 61.587 92.9014 61.4689 93.0428 61.6059C93.0576 61.916 91.2598 65.4612 90.3363 66.9279C89.2 68.7327 87.9587 70.4586 86.7765 71.8778C81.7277 77.9382 75.178 82.3685 67.5182 84.9046C62.6332 86.5219 56.5994 87.2633 51.5964 86.8609H51.5964Z" fill="#94D55B"/>
<path d="M51.8085 83.8349C50.7064 83.7492 48.4778 83.4571 47.3542 83.251C46.0764 83.0166 43.3649 82.3572 43.0794 82.2115C42.9807 82.161 42.6136 82.0381 42.2636 81.9382C41.9136 81.8383 40.9591 81.4933 40.1425 81.1714C32.4203 78.1279 25.6983 72.4805 21.2961 65.338C20.3381 63.7836 19.2724 61.7517 19.3327 61.5945C19.3903 61.4444 22.0287 61.3497 22.2314 61.4905C22.2964 61.5356 22.6024 62.026 22.9115 62.5802C28.1851 72.0356 37.6401 78.7464 48.3087 80.6062C50.5489 80.9968 51.7619 81.0884 54.6189 81.0831C56.9026 81.0785 57.7573 81.0338 59.1792 80.8427C69.4101 79.4677 78.4541 73.9208 84.3634 65.3967C84.9776 64.5107 85.9141 62.9764 86.2726 62.2689C86.7045 61.4165 86.6844 61.425 88.23 61.447C88.9832 61.4576 89.6389 61.506 89.6872 61.5544C89.88 61.7475 87.6873 65.5613 86.1803 67.6538C83.4895 71.3903 79.9797 74.7969 76.254 77.2885C71.0715 80.7542 65.5325 82.8141 59.1792 83.6384C57.9126 83.8027 53.0599 83.9321 51.8085 83.8349Z" fill="#02AEEE"/>
<path d="M59.4803 79.7439C59.2667 79.687 58.8903 79.4679 58.6439 79.257C57.3958 78.1885 57.5319 76.2833 58.9244 75.3298L59.2529 75.1049L58.6321 72.5284C57.3596 67.2466 56.1037 61.8617 56.1037 61.6871C56.1037 61.5438 56.1845 61.5135 56.4957 61.5396L56.8878 61.5725L57.2777 63.2166C57.4922 64.1208 58.2079 67.1398 58.8682 69.9254C60.0646 74.9726 60.0697 74.9902 60.3399 74.9908C61.1546 74.9925 61.9802 75.5167 62.3691 76.2791C63.1094 77.7304 62.325 79.4227 60.7347 79.8055C60.4344 79.8598 60.3393 79.8682 60.0277 79.8512C59.9403 79.8466 59.6939 79.8009 59.4803 79.744V79.7439Z" fill="#BEBEBE"/>
<path d="M47.6713 69.6313C47.555 70.7572 46.6884 72.0669 45.596 72.7681C44.4143 73.5264 42.7134 73.7254 41.3593 73.2637H41.3593C40.2444 72.8836 39.3243 72.1081 38.7301 71.0478C38.4611 70.5679 38.1775 69.6353 38.1893 69.2697L38.2423 67.8836H38.2423C38.3229 67.039 38.9148 65.901 39.6208 65.2332C40.2644 64.6244 41.1364 64.2381 41.9984 64.0147C42.4607 63.8949 42.953 63.9478 43.4302 63.9666C43.6079 63.9736 43.9605 64.0263 43.9605 64.0263C44.2521 64.0592 44.5674 64.1271 44.6611 64.1773C44.7991 64.2511 44.9912 64.0122 45.6715 62.9205L46.5115 61.5725L46.9594 61.5399C47.229 61.5203 47.4072 61.5528 47.4072 61.6216C47.4072 61.6845 46.9975 62.3889 46.4968 63.187C45.6448 64.545 45.5988 64.6472 45.7809 64.7788C46.7408 65.4724 47.5952 66.7823 47.7078 67.8725C47.7534 68.5154 47.7356 69.0089 47.6713 69.6313H47.6713Z" fill="#BEBEBE"/>
<path d="M70.6234 65.5501C70.4592 66.4221 69.4707 67.5847 68.5949 67.558L67.8757 67.5522C67.7299 67.5568 67.4193 67.4738 67.1855 67.3675H67.1855C66.5186 67.0646 65.8462 66.201 65.8682 65.6757L65.8653 64.7175C65.863 64.5805 65.9394 64.3023 66.0358 64.0993L66.2109 63.7301L65.2404 62.7554C64.7066 62.2193 64.2698 61.7219 64.2698 61.6501C64.2698 61.5659 64.4401 61.5195 64.7484 61.5195C65.2064 61.5195 65.2605 61.5545 66.0063 62.3324L66.7856 63.1453L67.2267 62.9688C67.4693 62.8717 67.7504 62.7957 67.8513 62.7998C68.0615 62.7924 68.1987 62.7363 68.55 62.823C68.6585 62.7951 68.9562 62.8521 69.2118 62.9497C69.9751 63.4402 70.8415 64.5213 70.6234 65.5501H70.6234Z" fill="#BEBEBE"/>
<path d="M100.753 57.7381C99.5673 57.6427 97.2224 57.1452 96.9611 56.9338C96.8741 56.8634 96.8285 56.5209 96.8285 55.9379C96.8285 54.9108 96.774 54.9445 97.9169 55.2637C99.6967 55.7608 101.966 55.9328 103.355 55.6759C104.232 55.5139 105.213 55.0431 105.71 54.5464C106.588 53.6684 107.022 52.1122 106.812 50.5978C106.532 48.5721 105.421 47.5551 102.29 46.4577C100.442 45.8097 99.3008 45.1887 98.3829 44.3314C97.0786 43.1132 96.5913 41.8902 96.5886 39.8285C96.5863 37.8464 97.0508 36.58 98.2053 35.4239C98.9968 34.6312 99.8129 34.165 101.021 33.8151C101.778 33.596 102.087 33.5705 103.987 33.5706C105.642 33.5708 106.306 33.6135 107.009 33.7647C107.504 33.8714 107.972 34.0099 108.047 34.0726C108.144 34.1528 108.175 34.4403 108.154 35.0453L108.123 35.904L107.805 35.8933C107.63 35.8875 107.129 35.7995 106.692 35.6978C105.538 35.4299 103.232 35.3632 102.263 35.5698C100.606 35.923 99.6558 36.6015 99.0736 37.8477C98.8183 38.394 98.7923 38.5674 98.7923 39.7225C98.7923 40.8941 98.8159 41.0459 99.0891 41.6317C99.6623 42.8606 100.666 43.5356 103.351 44.498C105.223 45.1689 106.251 45.731 107.166 46.5838C107.95 47.3137 108.458 48.1043 108.771 49.0781C109.022 49.8588 109.08 51.9651 108.878 52.928C108.387 55.2642 106.711 56.9103 104.244 57.4775C103.349 57.6832 101.648 57.8102 100.752 57.7382L100.753 57.7381Z" fill="black"/>
<path d="M0.0269779 45.6397L0.0539492 33.7826H1.10756H2.16117L2.49653 34.366C2.80025 34.8944 5.78395 40.1522 9.83986 47.3063C10.6832 48.7939 11.8331 50.8214 12.395 51.8118L13.4168 53.6126L13.4698 43.6976L13.5229 33.7826H14.4773H15.4318L15.4588 45.6357L15.4858 57.4889H14.3913H13.2968L13.0464 57.0381C12.9087 56.7902 12.0514 55.2747 11.1413 53.6704C10.2312 52.0661 7.81761 47.8094 5.77777 44.2111L2.06898 37.6686L2.01595 47.5522L1.96292 57.4358L0.981462 57.4664L0 57.4969L0.0269779 45.6397Z" fill="black"/>
<path d="M20.0941 57.3563C20.0663 57.2834 20.0559 51.9495 20.0709 45.5032L20.0982 33.7826H26.3554H32.6127V34.7372V35.6918L27.4425 35.7194L22.2724 35.7468V40.0404V44.334L26.7001 44.3617L31.1279 44.3894L31.1585 45.3175L31.1892 46.2456H26.7308C23.2363 46.2456 22.2717 46.2743 22.2693 46.3782C22.2676 46.4511 22.2674 48.5393 22.2686 51.0187L22.2708 55.5266L27.5212 55.5541L32.7717 55.5816V56.5352V57.4888H26.4581C21.5049 57.4888 20.1337 57.4603 20.0941 57.3562L20.0941 57.3563Z" fill="black"/>
<path d="M40.5237 33.7236L39.5549 36.723C39.0221 38.3727 38.3076 40.5817 37.9667 41.6318C37.6259 42.6818 36.8941 44.9491 36.3406 46.67C35.787 48.391 34.8053 51.4407 34.159 53.4475C33.5127 55.4542 32.9838 57.1845 32.9838 57.2925C32.9838 57.4697 33.0815 57.489 33.9876 57.489C34.8364 57.489 35.0061 57.4602 35.0871 57.3032C35.1604 57.1611 37.2278 50.6763 37.5052 49.7182C37.5559 49.5432 37.8313 49.5331 41.8645 49.559L46.1699 49.5869L46.6227 50.9659C46.8717 51.7243 47.3679 53.2755 47.7255 54.4131C48.0831 55.5507 48.448 56.7079 48.5363 56.985L48.6969 57.489H49.7489C50.6956 57.489 50.8011 57.4696 50.8011 57.2958C50.8011 57.1232 49.433 52.8251 45.1237 39.4574C44.3809 37.1531 43.6701 34.9334 43.5442 34.525L43.3154 33.7826L41.9195 33.7529L40.5237 33.7236ZM41.9004 36.1469C41.9351 36.1883 42.6668 38.4416 43.5265 41.1543C44.1117 43.0884 44.6671 45.1519 45.5819 47.6245H41.8863H38.1907L38.3286 47.1738C39.4491 43.5096 41.8525 36.0898 41.9004 36.1469Z" fill="black"/>
<path d="M53.3952 57.3563C53.3674 57.2834 53.357 51.9495 53.372 45.5032L53.3993 33.7826L54.4137 33.7525C55.2795 33.7267 55.4517 33.7501 55.5898 33.9115C55.6787 34.0156 56.6127 35.6281 57.6653 37.495C58.7179 39.3618 60.9743 43.3473 62.6794 46.3517C64.3846 49.356 66.0008 52.2072 66.2709 52.6876L66.7622 53.561L66.8152 43.6718L66.8682 33.7826H67.8227H68.7772L68.8042 45.6394L68.8311 57.4963L67.7473 57.466L66.6634 57.4358L63.8957 52.5566C62.3735 49.8731 59.8305 45.3883 58.2447 42.5905L55.3613 37.5035V47.4962V57.4888H54.4035C53.7349 57.4888 53.4304 57.4487 53.3952 57.3562L53.3952 57.3563Z" fill="black"/>
<path d="M73.5227 45.6396L73.5496 33.7826H74.5571H75.5647V45.6092V57.4358L74.5302 57.4662L73.4957 57.4965L73.5227 45.6396Z" fill="black"/>
<path d="M87.0032 33.7296C85.7411 33.7296 85.6842 33.7393 85.5843 33.9683C85.527 34.0996 84.7442 36.498 83.8451 39.2982C82.9459 42.0984 81.2756 47.2935 80.1333 50.8429C78.991 54.3923 78.0843 57.3413 78.1183 57.3963C78.1523 57.4513 78.6386 57.4826 79.199 57.466L80.2177 57.4358L80.8413 55.4735C81.1842 54.3942 81.7494 52.6164 82.0975 51.5225L82.7303 49.5336H87.0166H91.3032L91.9896 51.6817C92.3672 52.863 92.9342 54.6409 93.2494 55.6326L93.8228 57.4358L94.9013 57.466C95.7989 57.4912 95.9801 57.47 95.9801 57.3386C95.9801 57.105 88.5502 34.0173 88.4251 33.8621C88.3499 33.7689 87.9274 33.7296 87.0032 33.7296ZM87.0403 35.8654C87.0493 35.8631 87.0536 35.9068 87.0591 35.9946C87.0659 36.1027 87.883 38.7377 88.8746 41.8501C89.8662 44.9626 90.6776 47.5351 90.6776 47.5668C90.6776 47.5986 89.0308 47.6245 87.0185 47.6245C85.0061 47.6245 83.3597 47.6032 83.3597 47.5773C83.3597 47.5513 84.1657 44.9858 85.1506 41.8761C86.1356 38.7664 86.9652 36.1268 86.9942 36.0101C87.0179 35.9153 87.0313 35.8675 87.0403 35.8654L87.0403 35.8654Z" fill="black"/>
<path d="M11.7214 30.8681C11.5835 30.6449 12.905 27.3287 14.1105 24.8729C14.8903 23.2843 16.375 20.7006 17.0863 19.6946C17.2586 19.4508 17.59 18.9783 17.8227 18.6447C18.758 17.3034 20.7144 14.9634 22.2673 13.3285C24.0559 11.4454 28.1326 8.15347 30.3325 6.8159C36.3664 3.14713 41.8729 1.14696 48.4935 0.21903C49.8717 0.0258493 50.5847 -0.000106812 54.5129 -0.000106812C58.441 -0.000106812 59.154 0.0258262 60.5323 0.21903C65.778 0.954262 70.3704 2.38686 74.9814 4.72647C82.7538 8.67015 89.2171 14.8064 93.6148 22.417C94.9304 24.6937 96.6392 28.4722 97.1802 30.3007C97.3245 30.7885 97.3248 30.8561 97.1831 30.9106C96.9469 31.0012 94.6754 30.9818 94.5276 30.8878C94.4578 30.8434 94.2348 30.3725 94.0321 29.8413C90.3446 20.1777 83.1582 12.1433 73.8993 7.33305C69.4587 5.02605 64.3111 3.46033 59.2322 2.87181C53.4274 2.19918 47.2705 2.81158 41.6498 4.62068C33.2733 7.31676 25.9565 12.5321 20.646 19.5921C18.4731 22.4808 16.49 26.0417 15.1146 29.5241L14.5638 30.9188L13.1764 30.9484C12.3029 30.967 11.764 30.9372 11.7213 30.8681L11.7214 30.8681Z" fill="#FDC314"/>
<path d="M14.997 30.8233C14.9217 30.627 15.6642 28.7379 16.5467 26.8807C21.4907 16.4756 30.2911 8.71304 41.374 4.98111C43.8699 4.14068 47.407 3.39579 50.4828 3.06291C52.0425 2.89411 56.9556 2.89446 58.5429 3.06347C72.4733 4.54689 84.3473 12.2895 91.1856 24.3484C92.3589 26.4175 94.1533 30.4987 94.0304 30.8189C93.9837 30.9407 93.7068 30.9715 92.6692 30.9702C91.9529 30.969 91.3187 30.9335 91.2601 30.8906C91.2014 30.8478 90.9193 30.2638 90.6331 29.5929C87.8739 23.1236 83.5508 17.6421 77.8048 13.3271C73.282 9.93072 67.2198 7.3236 61.3767 6.26206C55.1926 5.13857 48.1253 5.63759 42.3166 7.60788C33.4561 10.6133 26.257 16.2302 21.32 23.9898C20.3505 25.5135 18.6747 28.7429 18.1893 30.0229C18.0245 30.4573 17.8378 30.8478 17.7744 30.8907C17.7109 30.9335 17.0728 30.9693 16.3565 30.9702C15.3368 30.972 15.0416 30.9396 14.997 30.8233Z" fill="#94D55B"/>
<path d="M18.2785 30.8071C18.1982 30.5978 18.5874 29.6619 19.6356 27.5435C23.4048 19.9264 29.5393 13.8029 37.226 9.98481C41.263 7.97956 45.3888 6.75899 50.0586 6.18833C52.3853 5.904 57.0605 5.92685 59.3383 6.23371C64.0341 6.86624 68.0964 8.10233 72.0649 10.1062C80.2595 14.2441 86.8694 21.3043 90.405 29.6958C90.978 31.0559 91.0394 30.9831 89.3497 30.9483L87.916 30.9188L87.4078 29.8051C83.1296 20.4302 74.63 13.0766 64.7238 10.1795C61.2216 9.1552 58.4659 8.76813 54.6189 8.7601C41.2071 7.08812 27.1724 18.7167 21.904 29.2217C21.5398 29.9801 21.2127 30.6841 21.1771 30.7862C21.1199 30.9502 20.9511 30.9718 19.727 30.9718C18.5723 30.9718 18.3312 30.9444 18.2785 30.8071Z" fill="#02AEEE"/>
<path d="M75.8075 25.9957C76.1756 26.05 76.8117 26.3463 77.1862 26.773C78.1768 27.9013 77.7784 29.8866 76.4303 30.5392C75.8822 30.8046 74.8952 30.8289 74.345 30.5906V30.5906C73.8925 30.3946 73.4284 29.9668 73.2052 29.5399C73 29.1478 72.938 28.8377 72.9293 28.5826C72.9093 27.998 73.023 27.5747 73.2197 27.0473C73.2663 26.9364 72.4557 26.0577 70.5456 24.1487L67.8047 21.4092L67.3187 21.7373C66.7827 22.099 66.0635 22.3842 65.7148 22.3732L65.304 22.4481C65.1313 22.4983 65.1184 22.7924 65.1184 26.6839V30.8658H64.6942H64.2699L64.2699 26.6838C64.2699 22.7903 64.2571 22.4986 64.0843 22.4534C63.5042 22.3748 63.7466 22.4601 63.1841 22.2804C62.8494 22.1734 62.3349 21.9314 62.0407 21.7426C61.4603 21.3701 60.631 20.4868 60.4237 20.0203C60.3524 19.8599 60.2601 19.7286 60.2185 19.7286C60.1769 19.7286 58.5123 20.3034 56.5194 21.006C54.5264 21.7085 53.1908 22.0446 53.1599 22.0136C53.129 21.9827 52.9528 22.1002 53.1599 22.0136L52.9902 22.0871C53.0579 22.842 52.9467 23.6418 52.3554 24.317L51.9947 24.7108L52.7323 26.2768C53.138 27.1381 53.7761 28.4884 54.1505 29.2775C54.5248 30.0666 54.831 30.7412 54.831 30.7766C54.831 30.8838 54.3484 30.9411 54.1293 30.86C53.9897 30.8084 53.4905 29.8604 52.5686 27.8964C51.8232 26.3081 51.2982 25.0364 51.2654 24.9564C51.2654 24.9564 50.5292 25.0078 50.2177 25.0175C50.0427 25.0227 49.7086 24.9389 49.4753 24.8309L49.4753 24.8309C48.5744 24.4137 48.1209 23.6166 48.1607 22.5197L48.1855 21.8366L44.0126 19.561L39.8398 17.2853L39.5669 17.5407C39.1818 17.9011 38.4542 18.2456 38.1052 18.2328L37.8093 18.2219L37.3321 18.2365C37.1862 18.2405 36.8619 18.142 36.6113 18.0179C36.1001 17.7649 35.6802 17.273 35.4683 16.6794C34.972 15.2884 35.8941 13.6391 37.2349 13.5194L37.8093 13.4744L38.2678 13.5165C39.0612 13.5893 39.8386 14.2928 40.0884 15.1639L40.1761 16.2755C40.1531 16.395 40.3433 16.5604 40.7788 16.7997C41.1288 16.9921 43.0139 18.023 44.968 19.0906C45.7266 19.1655 48.159 21.2556 48.6799 21.137C48.6799 20.8208 49.7106 20.2491 50.2408 20.2713L50.8187 20.2531C51.1641 20.2422 51.7865 20.4916 52.2942 20.9666L52.7918 21.4321L56.3667 20.1826L59.9417 18.9331L59.8838 18.3518C59.8637 17.8574 59.8291 17.6023 59.8843 17.13H59.8843C60.1552 14.89 61.8528 13.1931 64.1107 12.9054L65.0652 12.9456L65.5955 12.9955C66.4101 13.0721 67.5427 13.6799 68.189 14.3872C68.4888 14.7152 68.8229 15.1577 68.9314 15.3705C69.3654 16.4381 69.5123 17.3706 69.4048 18.4515C69.3395 19.1092 69.0255 19.9317 68.6394 20.4564L68.3771 20.813L71.1343 23.5705C73.597 26.0336 73.9142 26.3159 74.1045 26.214C74.8024 25.8994 75.1415 25.927 75.8075 25.9958L75.8075 25.9957Z" fill="#BEBEBE"/>
</g>
<defs>
<clipPath id="clip0_4_23">
<rect width="109" height="90" fill="white"/>
</clipPath>
</defs>
</svg>
