<?xml version="1.0" encoding="utf-8"?>
<!-- Generator: Adobe Illustrator 16.0.0, SVG Export Plug-In . SVG Version: 6.00 Build 0)  -->
<!DOCTYPE svg PUBLIC "-//W3C//DTD SVG 1.1//EN" "http://www.w3.org/Graphics/SVG/1.1/DTD/svg11.dtd">
<svg version="1.1" id="Layer_1" xmlns="http://www.w3.org/2000/svg" xmlns:xlink="http://www.w3.org/1999/xlink" x="0px" y="0px"
	 width="277.16px" height="349px" viewBox="104.542 71.606 277.16 349" enable-background="new 104.542 71.606 277.16 349"
	 xml:space="preserve">
<g>
	<path fill="#0BB0EF" d="M267.919,247.482c-3.918,3.918-8.547,6.795-13.759,8.545c-0.465,0.158-0.872,0.406-1.211,0.719
		c-0.454-0.081-0.93-0.067-1.404,0.053c-5.277,1.337-10.87,1.438-16.205,0.309c-0.477-0.104-0.956-0.102-1.404,0
		c-0.35-0.299-0.768-0.529-1.235-0.67c-5.279-1.553-10.015-4.248-14.076-8.013c-1.362-1.267-3.492-1.183-4.753,0.179
		c-1.264,1.362-1.184,3.492,0.179,4.754c4.828,4.475,10.464,7.684,16.749,9.537c0.555,0.162,1.127,0.179,1.653,0.062
		c0.411,0.353,0.916,0.61,1.485,0.731c2.902,0.619,5.875,0.93,8.844,0.93c3.511,0,7.017-0.434,10.416-1.295
		c0.563-0.145,1.056-0.42,1.457-0.79c0.523,0.092,1.096,0.053,1.652-0.126c6.202-2.088,11.711-5.51,16.369-10.168
		c1.313-1.313,1.313-3.443,0-4.758C271.359,246.171,269.234,246.171,267.919,247.482z"/>
	<path fill="#FCC100" d="M291.5,266.307c-1.316-1.313-3.439-1.313-4.758,0c-2.868,2.865-6.006,5.422-9.342,7.668
		c-1.396,0.938-2.814,1.836-4.28,2.656c-0.448,0.249-0.818,0.588-1.097,0.98c-0.481,0.009-0.971,0.123-1.43,0.354
		c-5.105,2.557-10.553,4.393-16.191,5.462c-0.506,0.097-0.963,0.302-1.353,0.583c-0.465-0.146-0.97-0.195-1.468-0.113
		c-2.893,0.408-5.831,0.619-8.74,0.619c-0.02,0-0.035,0-0.056,0c-2.769,0-5.56-0.188-8.295-0.557
		c-0.511-0.063-1.009-0.021-1.468,0.129c-0.393-0.279-0.853-0.48-1.359-0.57c-5.639-1.021-11.1-2.813-16.23-5.324
		c-0.463-0.229-0.951-0.336-1.433-0.347c-0.283-0.389-0.655-0.723-1.106-0.97c-1.617-0.889-3.179-1.875-4.711-2.905
		c-3.199-2.148-6.222-4.575-8.992-7.307c-1.325-1.3-3.453-1.286-4.758,0.039c-1.304,1.323-1.287,3.455,0.039,4.758
		c0.883,0.869,1.805,1.69,2.73,2.509c3.832,3.391,7.997,6.355,12.458,8.801c0.499,0.274,1.037,0.41,1.571,0.418
		c0.312,0.43,0.729,0.793,1.242,1.043c5.688,2.787,11.743,4.771,17.996,5.9c0.565,0.104,1.114,0.061,1.616-0.104
		c0.435,0.309,0.944,0.521,1.509,0.598c3.051,0.406,6.24,0.607,9.25,0.611c3.223,0,6.481-0.23,9.684-0.688
		c0.563-0.078,1.076-0.294,1.506-0.606c0.51,0.156,1.059,0.201,1.622,0.09c6.249-1.184,12.288-3.221,17.948-6.051
		c0.51-0.254,0.924-0.621,1.231-1.057c0.532-0.011,1.07-0.146,1.565-0.429c4.281-2.396,8.289-5.263,11.98-8.526
		c1.063-0.939,2.108-1.902,3.115-2.908C292.813,269.749,292.813,267.619,291.5,266.307z"/>
	<path fill="#97D459" d="M190.992,302.715c0.465,0.301,0.975,0.475,1.49,0.523c0.272,0.439,0.65,0.824,1.127,1.109
		c5.289,3.178,10.918,5.848,16.732,7.942c0.521,0.185,1.051,0.233,1.575,0.171c0.364,0.367,0.821,0.656,1.349,0.827
		c5.871,1.899,11.957,3.237,18.086,3.971c0.563,0.067,1.084-0.008,1.571-0.185c0.44,0.277,0.95,0.457,1.502,0.504
		c2.777,0.24,5.591,0.361,8.359,0.361c3.368,0,6.784-0.181,10.149-0.535c0.555-0.061,1.063-0.25,1.496-0.535
		c0.485,0.171,1.023,0.232,1.572,0.156c6.111-0.847,12.17-2.295,18.007-4.308c0.524-0.182,0.976-0.479,1.334-0.854
		c0.521,0.054,1.058-0.002,1.578-0.198c5.769-2.2,11.345-4.979,16.578-8.261c0.472-0.295,0.843-0.689,1.106-1.139
		c0.517-0.06,1.025-0.24,1.484-0.55c5.094-3.427,9.903-7.389,14.289-11.774c1.314-1.313,1.314-3.443,0-4.758
		c-1.316-1.312-3.439-1.312-4.758,0c-4.08,4.079-8.551,7.766-13.285,10.95c-0.429,0.289-0.771,0.659-1.018,1.079
		c-0.481,0.057-0.957,0.216-1.396,0.49c-4.861,3.049-10.043,5.632-15.4,7.673c-0.481,0.187-0.896,0.468-1.229,0.817
		c-0.496-0.06-0.985-0.008-1.474,0.162c-5.428,1.869-11.06,3.219-16.741,4.004c-0.513,0.07-0.981,0.256-1.388,0.521
		c-0.453-0.16-0.946-0.219-1.463-0.171c-5.711,0.61-11.494,0.661-17.22,0.163c-0.532-0.049-1.012,0.031-1.463,0.195
		c-0.409-0.258-0.88-0.433-1.394-0.492c-5.699-0.682-11.356-1.922-16.813-3.691c-0.496-0.16-0.995-0.193-1.475-0.137
		c-0.338-0.342-0.758-0.617-1.246-0.793c-5.4-1.941-10.633-4.426-15.544-7.375c-0.44-0.264-0.916-0.418-1.398-0.465
		c-0.252-0.409-0.6-0.773-1.034-1.051c-4.806-3.105-9.343-6.703-13.483-10.696c-1.334-1.289-3.466-1.255-4.755,0.087
		c-1.289,1.337-1.25,3.466,0.087,4.755C180.94,295.507,185.822,299.377,190.992,302.715z"/>
	<circle fill="#999999" cx="311.099" cy="242.701" r="7.158"/>
	<path fill="#0BB0EF" d="M377.587,162.194l-1.48-3.374l-0.036,0.017c-2.432-5.344-5.209-10.587-8.266-15.594l0.034-0.022
		l-1.959-3.119l-0.034,0.02c-3.181-4.929-6.693-9.715-10.445-14.233l0.029-0.028l-2.387-2.799l-0.031,0.025
		c-3.862-4.422-8.037-8.651-12.401-12.579l0.023-0.031l-2.769-2.424l-0.025,0.028c-4.472-3.825-9.217-7.409-14.101-10.66
		l0.017-0.028l-3.08-2.001l-0.021,0.036c-4.973-3.133-10.189-5.991-15.522-8.508l0.018-0.036l-3.336-1.522l-0.017,0.036
		c-5.394-2.379-10.976-4.444-16.601-6.145l0.012-0.039l-3.527-1.017l-0.012,0.036c-5.663-1.555-11.479-2.78-17.298-3.643
		l0.003-0.036l-3.641-0.493l-0.006,0.039c-5.824-0.709-11.759-1.076-17.647-1.087l-3.668,0.003v0.036
		c-5.88,0.146-11.806,0.673-17.626,1.569l-0.008-0.042l-3.623,0.608l0.006,0.039c-5.764,1.045-11.537,2.477-17.164,4.257
		l-0.014-0.034l-3.5,1.155l0.011,0.039c-5.513,1.9-10.99,4.178-16.301,6.776l-0.02-0.034l-3.284,1.659l0.017,0.034
		c-5.184,2.701-10.273,5.75-15.14,9.068l-0.022-0.031l-3.018,2.113l0.022,0.031c-4.747,3.405-9.362,7.14-13.72,11.102l-0.022-0.025
		l-2.696,2.505l0.025,0.028c-4.237,4.035-8.292,8.365-12.058,12.868l-0.031-0.022l-2.331,2.855l0.028,0.022
		c-3.66,4.59-7.087,9.432-10.195,14.395l-0.025-0.017l-1.922,3.141l0.036,0.022c-3.01,5.069-5.736,10.34-8.107,15.676l-0.036-0.017
		l-1.454,3.388l0.031,0.014c-0.983,2.366-1.874,4.768-2.73,7.178h7.2c0.611-1.631,1.191-3.273,1.863-4.88l1.149-2.671
		c2.337-5.282,5.036-10.503,8.026-15.516l1.513-2.491c3.068-4.926,6.468-9.727,10.105-14.272l1.841-2.253
		c3.727-4.472,7.751-8.765,11.957-12.759l2.135-1.99c4.31-3.934,8.883-7.633,13.588-10.996l2.385-1.67
		c4.809-3.293,9.85-6.311,14.981-8.97l2.595-1.311c5.24-2.578,10.657-4.831,16.103-6.692l2.752-0.911
		c5.545-1.768,11.239-3.181,16.922-4.198l2.861-0.479c5.729-0.894,11.565-1.415,17.352-1.544l2.908-0.031
		c0.045,0,0.09,0,0.138-0.003c5.772,0.006,11.593,0.367,17.295,1.076l2.886,0.39c5.747,0.838,11.492,2.048,17.077,3.595l2.799,0.81
		c5.548,1.665,11.06,3.705,16.376,6.061l2.657,1.213c5.265,2.472,10.419,5.293,15.314,8.393l2.447,1.583
		c4.834,3.197,9.521,6.742,13.935,10.531l2.186,1.917c4.324,3.873,8.452,8.056,12.264,12.434l1.884,2.214
		c3.721,4.458,7.194,9.191,10.329,14.073l1.544,2.458c3.027,4.946,5.776,10.13,8.169,15.418l1.169,2.657
		c1.233,2.889,2.354,5.838,3.394,8.814h7.063c-1.248-3.77-2.595-7.514-4.145-11.163L377.587,162.194z"/>
	<path fill="#0BB0EF" d="M112.759,286.693l1.74,3.25l0.034-0.02c2.827,5.129,6,10.145,9.438,14.916l-0.028,0.021l2.186,2.959
		l0.034-0.021c3.545,4.67,7.415,9.176,11.509,13.4l-0.031,0.027l2.598,2.608l0.025-0.024c4.192,4.114,8.676,8.015,13.333,11.599
		l-0.022,0.034l2.94,2.203l0.022-0.031c4.758,3.475,9.763,6.689,14.888,9.556l-0.02,0.034l3.225,1.751l0.02-0.034
		c5.218,2.749,10.643,5.198,16.135,7.286l-0.014,0.039l3.44,1.255l0.011-0.033c5.551,1.949,11.276,3.577,17.024,4.842l-0.009,0.033
		l3.607,0.748l0.008-0.039c5.75,1.112,11.638,1.887,17.517,2.299l3.671,0.248l0.003-0.039c2.233,0.104,4.481,0.154,6.739,0.154
		c3.635,0,7.305-0.134,10.923-0.4l0.006,0.039l3.663-0.316l-0.003-0.036c5.853-0.577,11.719-1.521,17.446-2.799l0.012,0.036
		l3.578-0.848l-0.01-0.039c5.709-1.429,11.375-3.22,16.858-5.324l0.015,0.037l3.41-1.358l-0.015-0.039
		c5.417-2.237,10.755-4.837,15.88-7.724l0.022,0.033l3.183-1.849l-0.017-0.034c5.038-3.012,9.94-6.357,14.583-9.953l0.023,0.033
		l2.881-2.292l-0.023-0.028c4.559-3.721,8.928-7.742,12.997-11.965l0.026,0.024l2.521-2.679l-0.028-0.028
		c3.973-4.329,7.717-8.948,11.141-13.728l0.032,0.021l2.101-3.017l-0.031-0.021c3.307-4.87,6.344-9.985,9.034-15.213l0.036,0.019
		l1.637-3.279l-0.036-0.021c1.421-2.943,2.724-5.953,3.949-8.997h-7.301c-0.906,2.132-1.825,4.257-2.832,6.332l-1.3,2.612
		c-2.648,5.162-5.646,10.217-8.921,15.018l-1.667,2.389c-3.366,4.729-7.068,9.291-11.002,13.563l-1.99,2.121
		c-4.015,4.182-8.334,8.16-12.85,11.825l-2.273,1.81c-4.579,3.563-9.432,6.871-14.418,9.836l-2.513,1.457
		c-5.055,2.864-10.331,5.433-15.684,7.631l-2.707,1.078c-5.408,2.09-11.007,3.859-16.646,5.258l-2.826,0.67
		c-5.655,1.277-11.453,2.207-17.234,2.767l-2.902,0.249c-5.793,0.439-11.705,0.521-17.461,0.244l-1.525-0.073l-1.383-0.095
		c-5.81-0.396-11.633-1.157-17.308-2.271l-2.847-0.586c-5.676-1.232-11.327-2.841-16.803-4.777l-2.742-1.006
		c-5.42-2.047-10.775-4.465-15.914-7.188l-2.564-1.395c-5.064-2.817-10.01-5.989-14.698-9.432l-2.331-1.749
		c-4.61-3.534-9.043-7.389-13.173-11.461l-2.048-2.062c-4.055-4.168-7.883-8.625-11.374-13.246l-1.732-2.338
		c-3.408-4.711-6.549-9.672-9.329-14.744l-1.37-2.559c-1.675-3.212-3.185-6.525-4.612-9.875h-7.265
		c1.74,4.316,3.63,8.588,5.763,12.699L112.759,286.693z"/>
	<path fill="#0BB0EF" d="M364.405,157.598l-1.712-3.256l-0.036,0.02c-2.802-5.162-5.979-10.192-9.444-14.967l0.036-0.028l-2.2-2.942
		l-0.034,0.022c-3.584-4.671-7.507-9.149-11.666-13.322l0.028-0.028l-2.623-2.567l-0.031,0.031
		c-4.271-4.066-8.847-7.885-13.599-11.357l0.022-0.034l-2.99-2.124l-0.025,0.034c-4.853-3.346-9.968-6.406-15.211-9.096l0.018-0.036
		l-3.283-1.631l-0.018,0.036c-5.316-2.55-10.851-4.769-16.467-6.605l0.012-0.042l-3.502-1.09l-0.013,0.039
		c-5.646-1.676-11.453-2.996-17.278-3.923l0.006-0.039l-3.631-0.53l-0.008,0.042c-5.921-0.779-11.966-1.174-17.939-1.174h-0.514
		v-0.039l-3.693,0.076l0.004,0.025c-5.907,0.179-11.828,0.74-17.612,1.67l-0.008-0.039l-3.618,0.628l0.008,0.042
		c-5.792,1.09-11.559,2.572-17.158,4.411l-0.017-0.039l-3.469,1.194l0.014,0.036c-5.543,1.987-11.004,4.36-16.247,7.059
		l-0.022-0.039l-3.245,1.729l0.02,0.034c-5.156,2.83-10.175,6.028-14.925,9.505l-0.025-0.034l-2.937,2.211l0.022,0.034
		c-4.652,3.601-9.116,7.541-13.271,11.722l-0.028-0.028l-2.556,2.634l0.031,0.031c-4.046,4.296-7.846,8.886-11.299,13.653
		l-0.034-0.022l-2.11,2.996l0.036,0.025c-3.332,4.873-6.369,10.001-9.037,15.255l-0.039-0.02l-1.614,3.293l0.036,0.017
		c-1.897,4.005-3.538,8.146-5.036,12.326h7.146c1.248-3.286,2.586-6.54,4.094-9.703l1.283-2.612
		c2.609-5.167,5.596-10.214,8.88-14.995l1.676-2.382c3.382-4.697,7.12-9.214,11.114-13.428l2.02-2.088
		c4.08-4.122,8.474-8.003,13.058-11.534l2.32-1.746c4.669-3.433,9.612-6.58,14.689-9.354l2.563-1.362
		c5.148-2.665,10.525-4.999,15.979-6.941l2.749-0.942c5.498-1.821,11.173-3.279,16.867-4.338l2.864-0.499
		c5.693-0.928,11.531-1.48,17.349-1.642l3.654-0.053c5.815,0,11.666,0.39,17.388,1.157l2.875,0.418
		c5.729,0.9,11.443,2.197,16.987,3.856l2.772,0.866c5.521,1.791,10.963,3.974,16.178,6.49l2.608,1.295
		c5.162,2.634,10.195,5.644,14.958,8.948l2.371,1.681c4.684,3.402,9.184,7.16,13.378,11.17l2.082,2.032
		c4.102,4.097,7.961,8.508,11.479,13.112l1.733,2.326c3.422,4.691,6.549,9.648,9.292,14.729l1.35,2.567
		c2.146,4.194,4.009,8.557,5.688,12.973h7.229c-1.931-5.372-4.194-10.672-6.781-15.756L364.405,157.598z"/>
	<path fill="#0BB0EF" d="M121.345,281.479l1.721,3.252l0.036-0.02c2.816,5.15,6.005,10.176,9.483,14.941l-0.031,0.025l2.205,2.939
		l0.034-0.025c3.59,4.655,7.524,9.121,11.702,13.291l-0.031,0.031l2.634,2.557l0.028-0.027c4.287,4.052,8.872,7.855,13.633,11.313
		l-0.022,0.034l2.996,2.116l0.025-0.034c4.862,3.337,9.99,6.383,15.244,9.06l-0.017,0.037l3.285,1.616l0.02-0.036
		c5.335,2.539,10.878,4.741,16.48,6.555l-0.012,0.041l3.508,1.082l0.014-0.039c5.65,1.66,11.462,2.963,17.287,3.873l-0.006,0.045
		l3.635,0.515l0.007-0.039c5.801,0.745,11.713,1.121,17.581,1.121l0.087,0.042l3.663-0.042v-0.052
		c5.916-0.158,11.848-0.701,17.643-1.615l0.008,0.042l3.618-0.622l-0.006-0.039c5.795-1.076,11.569-2.542,17.169-4.363l0.018,0.043
		l3.476-1.186l-0.015-0.039c5.549-1.975,11.019-4.329,16.271-7.012l0.017,0.035l3.252-1.715l-0.021-0.039
		c5.162-2.814,10.192-5.996,14.953-9.459l0.028,0.033l2.938-2.203l-0.021-0.033c4.666-3.588,9.138-7.517,13.302-11.681l0.031,0.028
		l2.563-2.629l-0.031-0.031c4.057-4.271,7.866-8.85,11.335-13.616l0.036,0.025l2.116-2.993l-0.031-0.025
		c1.372-1.992,2.658-4.053,3.928-6.125c-1.552,1.08-3.245,1.998-5.104,2.674c-1.809,0.658-3.646,1.039-5.479,1.22l-0.733,1.032
		c-3.402,4.694-7.154,9.201-11.15,13.394l-2.027,2.082c-4.088,4.104-8.494,7.974-13.094,11.495l-2.321,1.736
		c-4.682,3.418-9.631,6.553-14.718,9.313l-2.563,1.355c-5.159,2.647-10.542,4.969-16.004,6.896l-2.749,0.934
		c-5.501,1.806-11.182,3.248-16.883,4.291l-2.864,0.488c-5.694,0.911-11.53,1.446-17.351,1.594l-3.281,0.041
		c-5.68,0-11.405-0.373-17.016-1.104l-1.289-0.168l-1.582-0.244c-5.731-0.883-11.45-2.163-17.002-3.81l-2.773-0.855
		c-5.509-1.77-10.96-3.936-16.197-6.441l-2.617-1.285c-5.167-2.617-10.208-5.613-14.978-8.903l-2.382-1.679
		c-4.688-3.389-9.2-7.133-13.409-11.131l-2.085-2.025c-4.119-4.092-7.995-8.491-11.514-13.075l-1.743-2.323
		c-3.436-4.683-6.574-9.627-9.331-14.703l-1.359-2.563c-0.79-1.532-1.489-3.119-2.219-4.688h-7.439
		c1.108,2.531,2.277,5.039,3.532,7.488L121.345,281.479z"/>
	<path fill="#0BB0EF" d="M360.154,172.416l-1.415-3.391l-0.042,0.017c-2.354-5.408-5.111-10.699-8.199-15.729l0.036-0.022
		l-1.967-3.099l-0.036,0.022c-3.227-4.926-6.837-9.676-10.738-14.126l0.031-0.031l-2.458-2.721l-0.034,0.028
		c-4.032-4.332-8.393-8.41-12.974-12.131l0.026-0.036l-2.872-2.261l-0.026,0.031c-4.699-3.595-9.69-6.885-14.842-9.783l0.021-0.039
		l-3.211-1.749l-0.021,0.042c-5.244-2.755-10.726-5.153-16.303-7.137l0.016-0.045l-3.461-1.169l-0.016,0.039
		c-5.63-1.819-11.432-3.248-17.256-4.254l0.006-0.048l-3.618-0.569l-0.008,0.045c-5.927-0.846-11.985-1.272-18.01-1.272h-3.901
		v0.059c-5.936,0.182-11.879,0.779-17.686,1.777l-0.008-0.042l-3.601,0.673l0.009,0.045c-5.796,1.171-11.555,2.769-17.119,4.747
		l-0.018-0.045l-3.436,1.278l0.014,0.042c-5.495,2.135-10.889,4.685-16.046,7.58l-0.022-0.036l-3.172,1.844l0.022,0.036
		c-5.052,3.032-9.94,6.456-14.532,10.181l-0.031-0.034l-2.816,2.354l0.028,0.034c-4.484,3.859-8.729,8.056-12.621,12.487
		l-0.031-0.028l-2.382,2.785l0.034,0.031c-3.769,4.545-7.252,9.399-10.354,14.443l-0.034-0.022l-1.878,3.141l0.042,0.025
		c-2.954,5.122-5.568,10.503-7.773,16.001l-0.042-0.014l-0.385,1.005h7.351c1.986-4.758,4.24-9.429,6.816-13.872l1.488-2.5
		c3.024-4.94,6.431-9.693,10.13-14.129l1.886-2.211c3.8-4.346,7.958-8.46,12.363-12.229l2.219-1.855
		c4.492-3.66,9.281-7.014,14.233-9.97l2.508-1.457c5.038-2.847,10.321-5.344,15.704-7.42l2.718-1.009
		c5.438-1.948,11.074-3.508,16.746-4.643l2.851-0.532c5.674-0.992,11.494-1.575,17.297-1.74l3.428-0.05
		c5.803,0,11.638,0.42,17.343,1.247l2.86,0.451c5.699,0.972,11.377,2.371,16.877,4.161l2.757,0.936
		c5.452,1.925,10.813,4.271,15.928,6.972l2.558,1.39c5.039,2.822,9.926,6.042,14.516,9.57l2.284,1.802
		c4.49,3.629,8.765,7.625,12.698,11.876l1.939,2.149c3.833,4.349,7.373,9.004,10.52,13.835l1.554,2.446
		c3.038,4.918,5.737,10.102,8.029,15.407l0.576,1.377h7.232c-0.121-0.31-0.214-0.632-0.338-0.94L360.154,172.416z"/>
	<path fill="#0BB0EF" d="M129.948,276.34l1.701,3.248l0.042-0.021c2.816,5.185,6.025,10.218,9.544,14.965l-0.039,0.031l2.228,2.91
		l0.034-0.025c3.651,4.639,7.661,9.061,11.926,13.148l-0.031,0.033l2.685,2.497l0.031-0.03c4.394,3.975,9.093,7.658,13.98,10.965
		l-0.025,0.039l3.057,2.004l0.025-0.035c5.008,3.181,10.267,6.023,15.645,8.457l-0.017,0.041l3.354,1.457l0.018-0.039
		c5.461,2.285,11.127,4.191,16.854,5.678l-0.008,0.042l3.556,0.868l0.012-0.045c5.75,1.316,11.654,2.232,17.553,2.729l3.654,0.297
		l0.002-0.045c2.357,0.129,4.728,0.193,7.057,0.193c3.587-0.004,7.182-0.154,10.693-0.448l0.006,0.045l3.646-0.36l-0.003-0.041
		c5.876-0.664,11.75-1.752,17.464-3.234l0.013,0.045l3.532-0.973l-0.011-0.041c5.666-1.646,11.266-3.713,16.659-6.154l0.017,0.039
		l3.326-1.561l-0.021-0.043c5.297-2.584,10.46-5.567,15.356-8.881l0.025,0.036l3.01-2.096l-0.028-0.039
		c4.795-3.447,9.386-7.265,13.655-11.351l0.034,0.037l2.604-2.576l-0.026-0.026c4.151-4.215,8.04-8.751,11.556-13.49l0.036,0.025
		l0.188-0.263c-2.494-0.211-4.921-0.834-7.182-1.838c-2.983,3.852-6.164,7.582-9.591,11.041l-2.068,2.034
		c-4.17,4.011-8.667,7.748-13.369,11.111l-2.376,1.659c-4.787,3.252-9.847,6.179-15.039,8.695l-2.613,1.229
		c-5.271,2.4-10.758,4.428-16.303,6.021l-2.799,0.771c-5.588,1.463-11.338,2.527-17.091,3.164l-2.89,0.281
		c-5.66,0.494-11.52,0.584-17.387,0.252l-1.367-0.076l-1.524-0.123c-5.772-0.473-11.552-1.37-17.175-2.672l-2.822-0.688
		c-5.602-1.438-11.145-3.304-16.477-5.548l-2.668-1.163c-5.264-2.365-10.408-5.148-15.297-8.27l-2.432-1.594
		c-4.786-3.224-9.39-6.832-13.681-10.732l-2.118-1.977c-4.189-3.992-8.118-8.324-11.683-12.873l-1.754-2.307
		c-3.458-4.641-6.602-9.568-9.345-14.648l-1.119-2.131H128.9c0.373,0.774,0.696,1.578,1.084,2.346L129.948,276.34z"/>
	<path fill="#999999" d="M165.27,405.204c0,2.665-0.504,4.587-1.516,5.771c-1.012,1.185-2.57,1.777-4.674,1.777
		c-2.107,0-3.668-0.594-4.688-1.777c-1.02-1.185-1.53-3.106-1.53-5.771v-23.263h-7.3v22.423c0,3.422,0.488,6.201,1.466,8.339
		s2.463,3.707,4.453,4.711c1.99,1.003,4.523,1.505,7.6,1.505c3.057,0,5.565-0.502,7.521-1.505c1.959-1.003,3.419-2.572,4.38-4.711
		c0.961-2.138,1.443-4.918,1.443-8.339v-22.423h-7.154L165.27,405.204L165.27,405.204z"/>
	<polygon fill="#999999" points="212.546,411.147 206.354,381.941 198.289,381.941 191.85,410.875 185.83,381.941 178.454,381.941 
		186.497,418.45 196.02,418.45 202.259,391.266 208.105,418.45 217.627,418.45 225.669,381.941 218.813,381.941 	"/>
	<rect x="230.248" y="401.527" fill="#999999" width="13.344" height="5.871"/>
	<polygon fill="#999999" points="269.796,405.055 260.843,381.941 251.865,381.941 251.865,418.45 258.671,418.45 258.671,392.919 
		266.739,413.17 272.584,413.17 280.65,392.327 280.65,418.45 287.459,418.45 287.459,381.941 278.479,381.941 	"/>
	<path fill="#999999" d="M306.91,157.927h-2.868c1.683-1.832,3.416-3.722,4.227-4.604c1.833-1.997,1.855-2.928,0.551-2.928
		c-1.783,0-2.91,0-4.171,0c-2.131,0-3.195,0.745-3.195,0.745l-10.068,6.788h-50.023c-14.158,0-17.769-0.309-27.661,5.965
		c-4.63,2.937-9.945,6.506-14.304,9.481c-4.953,3.381-8.666,5.992-8.666,5.992c-0.83,1.174-1.004,2.418-0.483,3.368
		c0.517,0.956,1.669,1.512,3.127,1.512H277l1.271-1.499c3.896-4.116,8.457-7.159,13.367-9.373
		c7.629-3.442,16.115-4.842,24.397-4.842h1.398C317.436,162.437,312.775,157.927,306.91,157.927z"/>
	<path fill="#999999" d="M325.163,221.756c6.776,0,10.431-8.217,10.431-17.418c0-3.02,0.085-2.27,0.085-7.179
		s-1.125-7.472-4.121-7.472s-170.19,0-173.66,0c-10.075,0-9.174,6.231-5.392,9.477c3.782,3.246,5.227,4.238,15.485,12.51
		c13.59,10.958,26.793,10.082,42.75,10.082H322.76H325.163z"/>
	<circle fill="#97D459" cx="363.025" cy="220.087" r="10.983"/>
	<path fill="#FCC100" d="M362.303,266.359c-3.201-8.795-12.925-13.327-21.72-10.127c-7.48,2.723-11.859,10.164-11.036,17.74
		c0.146,1.329,0.43,2.664,0.908,3.979c1.794,4.928,5.637,8.517,10.216,10.157c2.353,0.844,4.896,1.152,7.458,0.886
		c1.354-0.144,2.71-0.429,4.046-0.914c0.211-0.077,0.407-0.175,0.613-0.261c5.921-2.42,9.77-7.84,10.423-13.848
		C363.483,271.477,363.22,268.882,362.303,266.359z"/>
</g>
<g>
	<path fill="#999999" d="M302.813,407.946l-3.189,10.504h-6.984l11.879-37.065h8.634l12.044,37.065h-7.26l-3.354-10.504H302.813z
		 M313.426,402.832l-2.914-9.129c-0.715-2.254-1.32-4.784-1.869-6.929h-0.11c-0.55,2.145-1.101,4.729-1.76,6.929l-2.86,9.129
		H313.426z"/>
	<path fill="#999999" d="M330.368,381.88c2.42-0.439,5.774-0.77,10.339-0.77c4.949,0,8.578,1.045,10.943,3.024
		c2.199,1.814,3.63,4.729,3.63,8.194c0,3.52-1.101,6.434-3.19,8.413c-2.693,2.695-6.929,3.96-11.713,3.96
		c-1.265,0-2.42-0.055-3.299-0.22v13.968h-6.71V381.88z M337.078,399.147c0.824,0.221,1.924,0.275,3.299,0.275
		c5.06,0,8.139-2.475,8.139-6.819c0-4.124-2.859-6.324-7.533-6.324c-1.87,0-3.189,0.165-3.904,0.33V399.147z"/>
</g>
</svg>
