<svg width="1440" height="494" viewBox="0 0 1440 494" fill="none" xmlns="http://www.w3.org/2000/svg">
<g clip-path="url(#clip0_8_219)">
<path d="M5.18242e-05 197.6L80.0001 164.718C160 131.219 320 66.3811 480 65.918C640 66.3812 800 131.219 960 140.018C1120 148.2 1280 98.8001 1360 74.1001L1440 49.4001L1440 494L1360 494C1280 494 1120 494 960 494C800 494 640 494 480 494C320 494 160 494 80 494L0 494L5.18242e-05 197.6Z" fill="white"/>
</g>
<defs>
<clipPath id="clip0_8_219">
<rect width="1440" height="494" fill="white" transform="matrix(1 1.74846e-07 1.74846e-07 -1 0 494)"/>
</clipPath>
</defs>
</svg>
